<mxfile host="Electron" modified="2023-05-11T02:17:28.812Z" agent="Mozilla/5.0 (Windows NT 10.0; Win64; x64) AppleWebKit/537.36 (KHTML, like Gecko) draw.io/21.2.8 Chrome/112.0.5615.165 Electron/24.2.0 Safari/537.36" etag="e5XNfohnFtsh82YmOnNt" version="21.2.8" type="device">
  <diagram name="PÃ¡gina-1" id="-37fiKzTfTFrvlBXJHoI">
    <mxGraphModel dx="4261" dy="2689" grid="0" gridSize="10" guides="1" tooltips="1" connect="1" arrows="1" fold="1" page="1" pageScale="1" pageWidth="1654" pageHeight="1169" math="0" shadow="0">
      <root>
        <mxCell id="0" />
        <mxCell id="1" parent="0" />
        <mxCell id="cvwk5FWjo_cIpafisq4H-9" value="" style="rounded=0;whiteSpace=wrap;html=1;fillColor=none;strokeColor=#b85450;dashed=1;dashPattern=1 4;strokeWidth=3;" parent="1" vertex="1">
          <mxGeometry x="-21" y="-38" width="1633" height="1235" as="geometry" />
        </mxCell>
        <mxCell id="piXn53ShzP-eT9wFTnDq-95" value="" style="rounded=0;whiteSpace=wrap;html=1;fillColor=none;strokeColor=#6c8ebf;dashed=1;strokeWidth=2;" parent="1" vertex="1">
          <mxGeometry x="1223" y="74.54066985645932" width="322" height="600.4593301435406" as="geometry" />
        </mxCell>
        <mxCell id="5LvUjJr5f0t_mkYkE7_c-12" value="" style="rounded=0;whiteSpace=wrap;html=1;fillColor=#d5e8d4;strokeColor=none;fillStyle=auto;opacity=40;dashed=1;dashPattern=1 1;strokeWidth=2;" parent="1" vertex="1">
          <mxGeometry x="1195" y="105" width="372" height="239" as="geometry" />
        </mxCell>
        <mxCell id="piXn53ShzP-eT9wFTnDq-108" value="" style="rounded=1;whiteSpace=wrap;html=1;fillColor=default;fontColor=#ffffff;strokeColor=#006EAF;" parent="1" vertex="1">
          <mxGeometry x="1236.75" y="153" width="295.37" height="48" as="geometry" />
        </mxCell>
        <mxCell id="piXn53ShzP-eT9wFTnDq-112" value="" style="rounded=1;whiteSpace=wrap;html=1;fillColor=default;fontColor=#ffffff;strokeColor=#006EAF;" parent="1" vertex="1">
          <mxGeometry x="1236.75" y="273" width="295.37" height="48" as="geometry" />
        </mxCell>
        <mxCell id="piXn53ShzP-eT9wFTnDq-111" value="" style="rounded=1;whiteSpace=wrap;html=1;fillColor=default;fontColor=#ffffff;strokeColor=#006EAF;" parent="1" vertex="1">
          <mxGeometry x="1236.75" y="215" width="295.37" height="48" as="geometry" />
        </mxCell>
        <mxCell id="piXn53ShzP-eT9wFTnDq-90" value="" style="rounded=0;whiteSpace=wrap;html=1;fillColor=#f5f5f5;fontColor=#333333;strokeColor=#000000;fillStyle=auto;dashed=1;dashPattern=1 1;strokeWidth=2;opacity=80;" parent="1" vertex="1">
          <mxGeometry x="1324.25" y="89" width="132" height="267" as="geometry" />
        </mxCell>
        <mxCell id="5LvUjJr5f0t_mkYkE7_c-13" value="" style="rounded=0;whiteSpace=wrap;html=1;fillColor=#e1d5e7;strokeColor=none;fillStyle=auto;opacity=60;dashed=1;dashPattern=1 1;strokeWidth=2;" parent="1" vertex="1">
          <mxGeometry x="1195" y="380" width="372" height="239" as="geometry" />
        </mxCell>
        <mxCell id="vQ1yZcKt1P1H_fzuq0_L-42" value="" style="rounded=1;whiteSpace=wrap;html=1;fillColor=default;fontColor=#ffffff;strokeColor=#006EAF;" parent="1" vertex="1">
          <mxGeometry x="1236.75" y="540" width="295.37" height="48" as="geometry" />
        </mxCell>
        <mxCell id="vQ1yZcKt1P1H_fzuq0_L-43" value="" style="rounded=1;whiteSpace=wrap;html=1;fillColor=default;fontColor=#ffffff;strokeColor=#006EAF;" parent="1" vertex="1">
          <mxGeometry x="1236.75" y="487" width="295.37" height="48" as="geometry" />
        </mxCell>
        <mxCell id="vQ1yZcKt1P1H_fzuq0_L-44" value="" style="rounded=1;whiteSpace=wrap;html=1;fillColor=default;fontColor=#ffffff;strokeColor=#006EAF;" parent="1" vertex="1">
          <mxGeometry x="1236.75" y="434" width="295.37" height="48" as="geometry" />
        </mxCell>
        <mxCell id="vQ1yZcKt1P1H_fzuq0_L-45" value="" style="rounded=0;whiteSpace=wrap;html=1;fillColor=#f5f5f5;fontColor=#333333;strokeColor=#000000;fillStyle=auto;opacity=80;dashed=1;dashPattern=1 1;strokeWidth=2;" parent="1" vertex="1">
          <mxGeometry x="1324.25" y="367" width="132" height="266" as="geometry" />
        </mxCell>
        <mxCell id="piXn53ShzP-eT9wFTnDq-23" value="" style="rounded=1;whiteSpace=wrap;html=1;fillColor=none;fontColor=#ffffff;strokeColor=#006EAF;" parent="1" vertex="1">
          <mxGeometry x="65.25" y="442" width="760.75" height="83" as="geometry" />
        </mxCell>
        <mxCell id="piXn53ShzP-eT9wFTnDq-21" value="" style="rounded=1;whiteSpace=wrap;html=1;fillColor=none;fontColor=#ffffff;strokeColor=#006EAF;" parent="1" vertex="1">
          <mxGeometry x="65.75" y="227" width="758.25" height="83" as="geometry" />
        </mxCell>
        <mxCell id="piXn53ShzP-eT9wFTnDq-22" value="" style="rounded=1;whiteSpace=wrap;html=1;fillColor=none;fontColor=#ffffff;strokeColor=#006EAF;" parent="1" vertex="1">
          <mxGeometry x="65.75" y="336" width="760.25" height="83" as="geometry" />
        </mxCell>
        <mxCell id="piXn53ShzP-eT9wFTnDq-20" value="" style="rounded=0;whiteSpace=wrap;html=1;fillColor=none;strokeColor=#6c8ebf;dashed=1;strokeWidth=2;" parent="1" vertex="1">
          <mxGeometry x="47.75" y="146" width="808.25" height="446" as="geometry" />
        </mxCell>
        <mxCell id="piXn53ShzP-eT9wFTnDq-24" value="" style="rounded=0;whiteSpace=wrap;html=1;fillColor=#f5f5f5;fontColor=#333333;strokeColor=#000000;fillStyle=auto;opacity=50;dashed=1;dashPattern=1 1;strokeWidth=2;" parent="1" vertex="1">
          <mxGeometry x="101.75" y="204" width="119" height="344" as="geometry" />
        </mxCell>
        <mxCell id="piXn53ShzP-eT9wFTnDq-28" value="" style="rounded=0;whiteSpace=wrap;html=1;fillColor=#dae8fc;strokeColor=none;" parent="1" vertex="1">
          <mxGeometry x="119.75" y="235" width="78" height="284" as="geometry" />
        </mxCell>
        <mxCell id="kLqBszuAOoGfDPWovw_3-4" value="" style="rounded=0;whiteSpace=wrap;html=1;fillColor=none;strokeColor=#6c8ebf;dashed=1;strokeWidth=2;" parent="1" vertex="1">
          <mxGeometry x="-512" y="704.5" width="427" height="446" as="geometry" />
        </mxCell>
        <mxCell id="kLqBszuAOoGfDPWovw_3-9" value="" style="rounded=0;whiteSpace=wrap;html=1;fillColor=#f5f5f5;fontColor=#333333;strokeColor=#000000;fillStyle=auto;opacity=50;dashed=1;dashPattern=1 1;strokeWidth=2;" parent="1" vertex="1">
          <mxGeometry x="-485" y="951" width="373" height="178" as="geometry" />
        </mxCell>
        <mxCell id="iGysODXyn0N9equV0JND-10" style="edgeStyle=orthogonalEdgeStyle;rounded=0;orthogonalLoop=1;jettySize=auto;html=1;entryX=0.031;entryY=1.002;entryDx=0;entryDy=0;entryPerimeter=0;strokeWidth=2;" parent="1" source="vQ1yZcKt1P1H_fzuq0_L-75" target="piXn53ShzP-eT9wFTnDq-20" edge="1">
          <mxGeometry relative="1" as="geometry">
            <Array as="points">
              <mxPoint x="73" y="1121" />
            </Array>
          </mxGeometry>
        </mxCell>
        <mxCell id="vQ1yZcKt1P1H_fzuq0_L-75" value="" style="rounded=0;whiteSpace=wrap;html=1;fillColor=none;strokeColor=#6c8ebf;dashed=1;strokeWidth=2;" parent="1" vertex="1">
          <mxGeometry x="557.75" y="704.5" width="643.25" height="446" as="geometry" />
        </mxCell>
        <mxCell id="vQ1yZcKt1P1H_fzuq0_L-58" value="" style="endArrow=classic;html=1;rounded=0;exitX=0.985;exitY=0.489;exitDx=0;exitDy=0;exitPerimeter=0;strokeWidth=2;fillColor=#fff2cc;strokeColor=#d6b656;entryX=0;entryY=0.5;entryDx=0;entryDy=0;" parent="1" source="piXn53ShzP-eT9wFTnDq-97" target="5LvUjJr5f0t_mkYkE7_c-12" edge="1">
          <mxGeometry width="50" height="50" relative="1" as="geometry">
            <mxPoint x="955" y="388.7" as="sourcePoint" />
            <mxPoint x="1171" y="228" as="targetPoint" />
          </mxGeometry>
        </mxCell>
        <mxCell id="vQ1yZcKt1P1H_fzuq0_L-59" value="" style="endArrow=classic;html=1;rounded=0;exitX=0.985;exitY=0.489;exitDx=0;exitDy=0;exitPerimeter=0;strokeWidth=2;fillColor=#fff2cc;strokeColor=#d6b656;entryX=0;entryY=0.5;entryDx=0;entryDy=0;" parent="1" source="piXn53ShzP-eT9wFTnDq-97" target="5LvUjJr5f0t_mkYkE7_c-13" edge="1">
          <mxGeometry width="50" height="50" relative="1" as="geometry">
            <mxPoint x="955" y="391.7" as="sourcePoint" />
            <mxPoint x="1189" y="556" as="targetPoint" />
          </mxGeometry>
        </mxCell>
        <mxCell id="vQ1yZcKt1P1H_fzuq0_L-82" style="edgeStyle=orthogonalEdgeStyle;rounded=0;orthogonalLoop=1;jettySize=auto;html=1;startArrow=block;startFill=1;strokeWidth=2;jumpStyle=none;jumpSize=0;" parent="1" source="vQ1yZcKt1P1H_fzuq0_L-75" target="piXn53ShzP-eT9wFTnDq-95" edge="1">
          <mxGeometry relative="1" as="geometry">
            <Array as="points">
              <mxPoint x="1529" y="1133" />
            </Array>
            <mxPoint x="1529" y="699" as="targetPoint" />
          </mxGeometry>
        </mxCell>
        <mxCell id="vQ1yZcKt1P1H_fzuq0_L-76" value="" style="image;aspect=fixed;html=1;points=[];align=center;fontSize=12;image=img/lib/azure2/networking/Virtual_Networks.svg;" parent="1" vertex="1">
          <mxGeometry x="539.75" y="685.5" width="67" height="40" as="geometry" />
        </mxCell>
        <mxCell id="vQ1yZcKt1P1H_fzuq0_L-77" value="VNET-HUB&lt;br&gt;10.0.0.0/16" style="text;html=1;strokeColor=none;fillColor=none;align=center;verticalAlign=middle;whiteSpace=wrap;rounded=0;" parent="1" vertex="1">
          <mxGeometry x="526" y="645.5" width="94.5" height="30" as="geometry" />
        </mxCell>
        <mxCell id="vQ1yZcKt1P1H_fzuq0_L-79" value="Peering" style="text;html=1;strokeColor=none;fillColor=none;align=center;verticalAlign=middle;whiteSpace=wrap;rounded=0;fontSize=14;" parent="1" vertex="1">
          <mxGeometry x="277" y="1120.5" width="55" height="30" as="geometry" />
        </mxCell>
        <mxCell id="vQ1yZcKt1P1H_fzuq0_L-80" value="Peering" style="text;html=1;strokeColor=none;fillColor=none;align=center;verticalAlign=middle;whiteSpace=wrap;rounded=0;fontSize=14;" parent="1" vertex="1">
          <mxGeometry x="1082" y="1104" width="55" height="30" as="geometry" />
        </mxCell>
        <mxCell id="kLqBszuAOoGfDPWovw_3-17" style="edgeStyle=orthogonalEdgeStyle;rounded=0;orthogonalLoop=1;jettySize=auto;html=1;entryX=0.5;entryY=1;entryDx=0;entryDy=0;entryPerimeter=0;strokeWidth=2;" parent="1" source="vQ1yZcKt1P1H_fzuq0_L-85" target="kLqBszuAOoGfDPWovw_3-32" edge="1">
          <mxGeometry relative="1" as="geometry">
            <Array as="points">
              <mxPoint x="604" y="1219" />
              <mxPoint x="-240" y="1219" />
              <mxPoint x="-240" y="1056" />
            </Array>
          </mxGeometry>
        </mxCell>
        <mxCell id="vQ1yZcKt1P1H_fzuq0_L-85" value="" style="image;sketch=0;aspect=fixed;html=1;points=[];align=center;fontSize=12;image=img/lib/mscae/Local_Network_Gateways.svg;" parent="1" vertex="1">
          <mxGeometry x="578.75" y="1005.5" width="50" height="50" as="geometry" />
        </mxCell>
        <mxCell id="kLqBszuAOoGfDPWovw_3-1" value="LNG01" style="text;html=1;strokeColor=none;fillColor=none;align=center;verticalAlign=middle;whiteSpace=wrap;rounded=0;" parent="1" vertex="1">
          <mxGeometry x="578.75" y="983" width="55" height="18" as="geometry" />
        </mxCell>
        <mxCell id="kLqBszuAOoGfDPWovw_3-6" value="On-Premises Network" style="text;html=1;strokeColor=none;fillColor=none;align=center;verticalAlign=middle;whiteSpace=wrap;rounded=0;" parent="1" vertex="1">
          <mxGeometry x="-512" y="670" width="122" height="30" as="geometry" />
        </mxCell>
        <mxCell id="kLqBszuAOoGfDPWovw_3-7" value="" style="rounded=0;whiteSpace=wrap;html=1;fillColor=#f5f5f5;fontColor=#333333;strokeColor=#000000;fillStyle=auto;opacity=50;dashed=1;dashPattern=1 1;strokeWidth=2;" parent="1" vertex="1">
          <mxGeometry x="-485" y="745" width="373" height="178" as="geometry" />
        </mxCell>
        <mxCell id="kLqBszuAOoGfDPWovw_3-11" value="" style="shape=mxgraph.cisco.buildings.generic_building;html=1;pointerEvents=1;dashed=0;fillColor=#5b6167;strokeColor=#ffffff;strokeWidth=2;verticalLabelPosition=bottom;verticalAlign=top;align=center;outlineConnect=0;" parent="1" vertex="1">
          <mxGeometry x="-626" y="824" width="90" height="136" as="geometry" />
        </mxCell>
        <mxCell id="kLqBszuAOoGfDPWovw_3-12" value="" style="image;aspect=fixed;html=1;points=[];align=center;fontSize=12;image=img/lib/azure2/identity/Azure_Active_Directory.svg;" parent="1" vertex="1">
          <mxGeometry x="-309.19" y="135" width="70" height="64" as="geometry" />
        </mxCell>
        <mxCell id="kLqBszuAOoGfDPWovw_3-16" value="" style="endArrow=classic;startArrow=classic;html=1;rounded=0;strokeWidth=2;entryX=1.017;entryY=0.518;entryDx=0;entryDy=0;entryPerimeter=0;exitX=0;exitY=0.5;exitDx=0;exitDy=0;" parent="1" source="vQ1yZcKt1P1H_fzuq0_L-83" target="vQ1yZcKt1P1H_fzuq0_L-85" edge="1">
          <mxGeometry width="50" height="50" relative="1" as="geometry">
            <mxPoint x="664.25" y="1188" as="sourcePoint" />
            <mxPoint x="664.25" y="1112" as="targetPoint" />
          </mxGeometry>
        </mxCell>
        <mxCell id="kLqBszuAOoGfDPWovw_3-30" value="" style="group" parent="1" vertex="1" connectable="0">
          <mxGeometry x="-306" y="772.5" width="72.62" height="105.5" as="geometry" />
        </mxCell>
        <mxCell id="kLqBszuAOoGfDPWovw_3-27" value="" style="sketch=0;aspect=fixed;pointerEvents=1;shadow=0;dashed=0;html=1;strokeColor=none;labelPosition=center;verticalLabelPosition=bottom;verticalAlign=top;align=center;fillColor=#4aa8ec;shape=mxgraph.mscae.enterprise.windows_server;gradientColor=#50e6ff;gradientDirection=north;" parent="kLqBszuAOoGfDPWovw_3-30" vertex="1">
          <mxGeometry x="11" width="61.62" height="79" as="geometry" />
        </mxCell>
        <mxCell id="kLqBszuAOoGfDPWovw_3-28" value="Azure &lt;br&gt;AD Connect" style="text;html=1;strokeColor=none;fillColor=none;align=center;verticalAlign=middle;whiteSpace=wrap;rounded=0;" parent="kLqBszuAOoGfDPWovw_3-30" vertex="1">
          <mxGeometry y="89.5" width="70" height="18" as="geometry" />
        </mxCell>
        <mxCell id="kLqBszuAOoGfDPWovw_3-31" value="" style="group" parent="1" vertex="1" connectable="0">
          <mxGeometry x="-409" y="772.5" width="66.62" height="109" as="geometry" />
        </mxCell>
        <mxCell id="kLqBszuAOoGfDPWovw_3-14" value="" style="sketch=0;aspect=fixed;pointerEvents=1;shadow=0;dashed=0;html=1;strokeColor=none;labelPosition=center;verticalLabelPosition=bottom;verticalAlign=top;align=center;fillColor=#4aa8ec;shape=mxgraph.mscae.enterprise.windows_server;gradientColor=#50e6ff;gradientDirection=north;" parent="kLqBszuAOoGfDPWovw_3-31" vertex="1">
          <mxGeometry x="5" width="61.62" height="79" as="geometry" />
        </mxCell>
        <mxCell id="kLqBszuAOoGfDPWovw_3-25" value="Domain&lt;br&gt;Controller" style="text;html=1;strokeColor=none;fillColor=none;align=center;verticalAlign=middle;whiteSpace=wrap;rounded=0;" parent="kLqBszuAOoGfDPWovw_3-31" vertex="1">
          <mxGeometry y="91" width="55" height="18" as="geometry" />
        </mxCell>
        <mxCell id="kLqBszuAOoGfDPWovw_3-35" style="edgeStyle=orthogonalEdgeStyle;rounded=0;orthogonalLoop=1;jettySize=auto;html=1;" parent="1" source="kLqBszuAOoGfDPWovw_3-32" target="kLqBszuAOoGfDPWovw_3-33" edge="1">
          <mxGeometry relative="1" as="geometry" />
        </mxCell>
        <mxCell id="kLqBszuAOoGfDPWovw_3-36" value="" style="group" parent="1" vertex="1" connectable="0">
          <mxGeometry x="-412" y="1011.5" width="55" height="65" as="geometry" />
        </mxCell>
        <mxCell id="kLqBszuAOoGfDPWovw_3-33" value="" style="image;aspect=fixed;html=1;points=[];align=center;fontSize=12;image=img/lib/azure2/compute/Virtual_Machine.svg;" parent="kLqBszuAOoGfDPWovw_3-36" vertex="1">
          <mxGeometry x="6.469999999999743" width="42.05" height="39" as="geometry" />
        </mxCell>
        <mxCell id="kLqBszuAOoGfDPWovw_3-34" value="Clients" style="text;html=1;strokeColor=none;fillColor=none;align=center;verticalAlign=middle;whiteSpace=wrap;rounded=0;" parent="kLqBszuAOoGfDPWovw_3-36" vertex="1">
          <mxGeometry y="47" width="55" height="18" as="geometry" />
        </mxCell>
        <mxCell id="kLqBszuAOoGfDPWovw_3-38" value="" style="group" parent="1" vertex="1" connectable="0">
          <mxGeometry x="-267.19" y="1006" width="55" height="69.5" as="geometry" />
        </mxCell>
        <mxCell id="kLqBszuAOoGfDPWovw_3-32" value="" style="sketch=0;aspect=fixed;pointerEvents=1;shadow=0;dashed=0;html=1;strokeColor=none;labelPosition=center;verticalLabelPosition=bottom;verticalAlign=top;align=center;fillColor=#5b6167;shape=mxgraph.mscae.enterprise.gateway" parent="kLqBszuAOoGfDPWovw_3-38" vertex="1">
          <mxGeometry x="2.5" width="50" height="50" as="geometry" />
        </mxCell>
        <mxCell id="kLqBszuAOoGfDPWovw_3-40" style="edgeStyle=orthogonalEdgeStyle;rounded=0;orthogonalLoop=1;jettySize=auto;html=1;" parent="1" target="kLqBszuAOoGfDPWovw_3-12" edge="1">
          <mxGeometry relative="1" as="geometry">
            <mxPoint x="-274.19000000000005" y="772.5" as="sourcePoint" />
          </mxGeometry>
        </mxCell>
        <mxCell id="kLqBszuAOoGfDPWovw_3-41" value="Azure AD" style="text;html=1;strokeColor=none;fillColor=none;align=center;verticalAlign=middle;whiteSpace=wrap;rounded=0;" parent="1" vertex="1">
          <mxGeometry x="-301.69" y="110" width="55" height="18" as="geometry" />
        </mxCell>
        <mxCell id="kLqBszuAOoGfDPWovw_3-43" value="" style="sketch=0;pointerEvents=1;shadow=0;dashed=0;html=1;strokeColor=none;labelPosition=center;verticalLabelPosition=bottom;verticalAlign=top;align=center;fillColor=#505050;shape=mxgraph.mscae.intune.user_group" parent="1" vertex="1">
          <mxGeometry x="-225" y="148.5" width="50" height="37" as="geometry" />
        </mxCell>
        <mxCell id="5LvUjJr5f0t_mkYkE7_c-6" value="" style="group" parent="1" vertex="1" connectable="0">
          <mxGeometry x="946.5" y="203.5" width="126" height="299" as="geometry" />
        </mxCell>
        <mxCell id="piXn53ShzP-eT9wFTnDq-96" value="" style="rounded=1;whiteSpace=wrap;html=1;fillColor=#d5e8d4;strokeColor=none;" parent="5LvUjJr5f0t_mkYkE7_c-6" vertex="1">
          <mxGeometry x="47.5" y="39" width="31" height="260" as="geometry" />
        </mxCell>
        <mxCell id="piXn53ShzP-eT9wFTnDq-97" value="" style="image;sketch=0;aspect=fixed;html=1;points=[];align=center;fontSize=12;image=img/lib/mscae/Load_Balancer_feature.svg;" parent="5LvUjJr5f0t_mkYkE7_c-6" vertex="1">
          <mxGeometry x="36.5" y="141" width="53" height="53" as="geometry" />
        </mxCell>
        <mxCell id="WbdaYALbMlaz5bzxNm2c-4" value="Internal Load Balancer&lt;br&gt;lb-backend-02" style="text;html=1;strokeColor=none;fillColor=none;align=center;verticalAlign=middle;whiteSpace=wrap;rounded=0;" parent="5LvUjJr5f0t_mkYkE7_c-6" vertex="1">
          <mxGeometry width="126" height="30" as="geometry" />
        </mxCell>
        <mxCell id="piXn53ShzP-eT9wFTnDq-100" value="" style="endArrow=classic;html=1;rounded=0;strokeColor=#B09500;strokeWidth=2;fillColor=#e3c800;entryX=-0.006;entryY=0.626;entryDx=0;entryDy=0;entryPerimeter=0;exitX=1.053;exitY=0;exitDx=0;exitDy=0;exitPerimeter=0;" parent="1" source="piXn53ShzP-eT9wFTnDq-43" target="piXn53ShzP-eT9wFTnDq-97" edge="1">
          <mxGeometry width="50" height="50" relative="1" as="geometry">
            <mxPoint x="686.6163999999999" y="483.96799999999996" as="sourcePoint" />
            <mxPoint x="944.01" y="406.4989999999999" as="targetPoint" />
          </mxGeometry>
        </mxCell>
        <mxCell id="piXn53ShzP-eT9wFTnDq-101" value="" style="endArrow=classic;html=1;rounded=0;exitX=1.019;exitY=0.018;exitDx=0;exitDy=0;exitPerimeter=0;strokeColor=#B09500;strokeWidth=2;fillColor=#e3c800;entryX=0.006;entryY=0.33;entryDx=0;entryDy=0;entryPerimeter=0;" parent="1" source="piXn53ShzP-eT9wFTnDq-44" target="piXn53ShzP-eT9wFTnDq-97" edge="1">
          <mxGeometry width="50" height="50" relative="1" as="geometry">
            <mxPoint x="687.5835500000001" y="296.346" as="sourcePoint" />
            <mxPoint x="909" y="369.5" as="targetPoint" />
          </mxGeometry>
        </mxCell>
        <mxCell id="piXn53ShzP-eT9wFTnDq-86" value="" style="image;aspect=fixed;html=1;points=[];align=center;fontSize=12;image=img/lib/azure2/networking/Virtual_Networks.svg;" parent="1" vertex="1">
          <mxGeometry x="29.75" y="127" width="67" height="40" as="geometry" />
        </mxCell>
        <mxCell id="piXn53ShzP-eT9wFTnDq-87" value="VNET-SPOKE01&lt;br&gt;10.10.0.0/16" style="text;html=1;strokeColor=none;fillColor=none;align=center;verticalAlign=middle;whiteSpace=wrap;rounded=0;" parent="1" vertex="1">
          <mxGeometry x="16" y="87" width="94.5" height="30" as="geometry" />
        </mxCell>
        <mxCell id="piXn53ShzP-eT9wFTnDq-25" value="" style="rounded=0;whiteSpace=wrap;html=1;fillColor=#f5f5f5;fontColor=#333333;strokeColor=#000000;fillStyle=auto;opacity=50;dashed=1;dashPattern=1 1;strokeWidth=2;" parent="1" vertex="1">
          <mxGeometry x="319.75" y="204" width="119" height="344" as="geometry" />
        </mxCell>
        <mxCell id="piXn53ShzP-eT9wFTnDq-26" value="" style="rounded=0;whiteSpace=wrap;html=1;fillColor=#f5f5f5;fontColor=#333333;strokeColor=#000000;fillStyle=auto;opacity=50;dashed=1;dashPattern=1 1;strokeWidth=2;" parent="1" vertex="1">
          <mxGeometry x="613.75" y="204" width="119" height="344" as="geometry" />
        </mxCell>
        <mxCell id="piXn53ShzP-eT9wFTnDq-31" value="" style="rounded=1;whiteSpace=wrap;html=1;fillColor=#d5e8d4;strokeColor=none;" parent="1" vertex="1">
          <mxGeometry x="509.75" y="243" width="31" height="260" as="geometry" />
        </mxCell>
        <mxCell id="piXn53ShzP-eT9wFTnDq-39" value="" style="image;aspect=fixed;html=1;points=[];align=center;fontSize=12;image=img/lib/azure2/compute/Virtual_Machine.svg;" parent="1" vertex="1">
          <mxGeometry x="358.2299999999998" y="358" width="42.05" height="39" as="geometry" />
        </mxCell>
        <mxCell id="piXn53ShzP-eT9wFTnDq-40" value="" style="image;aspect=fixed;html=1;points=[];align=center;fontSize=12;image=img/lib/azure2/compute/Virtual_Machine.svg;" parent="1" vertex="1">
          <mxGeometry x="358.2299999999998" y="464" width="42.05" height="39" as="geometry" />
        </mxCell>
        <mxCell id="piXn53ShzP-eT9wFTnDq-41" value="" style="image;aspect=fixed;html=1;points=[];align=center;fontSize=12;image=img/lib/azure2/compute/Virtual_Machine.svg;" parent="1" vertex="1">
          <mxGeometry x="358.2299999999998" y="249" width="42.05" height="39" as="geometry" />
        </mxCell>
        <mxCell id="piXn53ShzP-eT9wFTnDq-42" value="" style="image;aspect=fixed;html=1;points=[];align=center;fontSize=12;image=img/lib/azure2/compute/Virtual_Machine.svg;" parent="1" vertex="1">
          <mxGeometry x="652.2299999999998" y="351.5" width="42.05" height="39" as="geometry" />
        </mxCell>
        <mxCell id="piXn53ShzP-eT9wFTnDq-43" value="" style="image;aspect=fixed;html=1;points=[];align=center;fontSize=12;image=img/lib/azure2/compute/Virtual_Machine.svg;" parent="1" vertex="1">
          <mxGeometry x="652.2299999999998" y="463.5" width="42.05" height="39" as="geometry" />
        </mxCell>
        <mxCell id="piXn53ShzP-eT9wFTnDq-44" value="" style="image;aspect=fixed;html=1;points=[];align=center;fontSize=12;image=img/lib/azure2/compute/Virtual_Machine.svg;" parent="1" vertex="1">
          <mxGeometry x="652.2299999999998" y="248.5" width="42.05" height="39" as="geometry" />
        </mxCell>
        <mxCell id="piXn53ShzP-eT9wFTnDq-45" value="Zona 1" style="text;html=1;strokeColor=none;fillColor=none;align=center;verticalAlign=middle;whiteSpace=wrap;rounded=0;" parent="1" vertex="1">
          <mxGeometry x="766" y="253" width="60" height="30" as="geometry" />
        </mxCell>
        <mxCell id="piXn53ShzP-eT9wFTnDq-46" value="Zona 2" style="text;html=1;strokeColor=none;fillColor=none;align=center;verticalAlign=middle;whiteSpace=wrap;rounded=0;" parent="1" vertex="1">
          <mxGeometry x="764" y="372.5" width="60" height="30" as="geometry" />
        </mxCell>
        <mxCell id="piXn53ShzP-eT9wFTnDq-47" value="Zona 3" style="text;html=1;strokeColor=none;fillColor=none;align=center;verticalAlign=middle;whiteSpace=wrap;rounded=0;" parent="1" vertex="1">
          <mxGeometry x="764" y="464" width="60" height="30" as="geometry" />
        </mxCell>
        <mxCell id="piXn53ShzP-eT9wFTnDq-48" value="AppGatewaySubnet" style="text;html=1;strokeColor=none;fillColor=none;align=center;verticalAlign=middle;whiteSpace=wrap;rounded=0;" parent="1" vertex="1">
          <mxGeometry x="111" y="174.5" width="94.5" height="21.5" as="geometry" />
        </mxCell>
        <mxCell id="piXn53ShzP-eT9wFTnDq-49" value="sub-frontend" style="text;html=1;strokeColor=none;fillColor=none;align=center;verticalAlign=middle;whiteSpace=wrap;rounded=0;" parent="1" vertex="1">
          <mxGeometry x="328.25" y="174.5" width="110.5" height="23" as="geometry" />
        </mxCell>
        <mxCell id="piXn53ShzP-eT9wFTnDq-56" value="" style="group" parent="1" vertex="1" connectable="0">
          <mxGeometry x="127.25" y="411" width="60" height="65" as="geometry" />
        </mxCell>
        <mxCell id="piXn53ShzP-eT9wFTnDq-53" value="" style="image;aspect=fixed;html=1;points=[];align=center;fontSize=12;image=img/lib/azure2/networking/Web_Application_Firewall_Policies_WAF.svg;" parent="piXn53ShzP-eT9wFTnDq-56" vertex="1">
          <mxGeometry x="9" width="42" height="42" as="geometry" />
        </mxCell>
        <mxCell id="piXn53ShzP-eT9wFTnDq-55" value="WAF" style="text;html=1;strokeColor=none;fillColor=none;align=center;verticalAlign=middle;whiteSpace=wrap;rounded=0;" parent="piXn53ShzP-eT9wFTnDq-56" vertex="1">
          <mxGeometry y="42" width="60" height="23" as="geometry" />
        </mxCell>
        <mxCell id="piXn53ShzP-eT9wFTnDq-57" value="" style="group" parent="1" vertex="1" connectable="0">
          <mxGeometry x="127.25" y="295" width="60" height="75" as="geometry" />
        </mxCell>
        <mxCell id="piXn53ShzP-eT9wFTnDq-52" value="" style="image;sketch=0;aspect=fixed;html=1;points=[];align=center;fontSize=12;image=img/lib/mscae/Application_Gateway.svg;" parent="piXn53ShzP-eT9wFTnDq-57" vertex="1">
          <mxGeometry x="5" width="50" height="50" as="geometry" />
        </mxCell>
        <mxCell id="piXn53ShzP-eT9wFTnDq-54" value="AppGW" style="text;html=1;strokeColor=none;fillColor=none;align=center;verticalAlign=middle;whiteSpace=wrap;rounded=0;" parent="piXn53ShzP-eT9wFTnDq-57" vertex="1">
          <mxGeometry y="45" width="60" height="30" as="geometry" />
        </mxCell>
        <mxCell id="piXn53ShzP-eT9wFTnDq-58" value="" style="image;sketch=0;aspect=fixed;html=1;points=[];align=center;fontSize=12;image=img/lib/mscae/Load_Balancer_feature.svg;" parent="1" vertex="1">
          <mxGeometry x="498.75" y="345" width="53" height="53" as="geometry" />
        </mxCell>
        <mxCell id="piXn53ShzP-eT9wFTnDq-62" value="" style="endArrow=classic;html=1;rounded=0;exitX=1.004;exitY=0.517;exitDx=0;exitDy=0;exitPerimeter=0;entryX=-0.026;entryY=0.794;entryDx=0;entryDy=0;entryPerimeter=0;strokeWidth=2;fillColor=#e3c800;strokeColor=#B09500;" parent="1" target="piXn53ShzP-eT9wFTnDq-41" edge="1">
          <mxGeometry width="50" height="50" relative="1" as="geometry">
            <mxPoint x="198.0619999999999" y="370.709" as="sourcePoint" />
            <mxPoint x="294.75" y="265" as="targetPoint" />
          </mxGeometry>
        </mxCell>
        <mxCell id="piXn53ShzP-eT9wFTnDq-63" value="" style="endArrow=classic;html=1;rounded=0;exitX=1;exitY=0;exitDx=0;exitDy=0;strokeWidth=2;fillColor=#e3c800;strokeColor=#B09500;" parent="1" edge="1">
          <mxGeometry width="50" height="50" relative="1" as="geometry">
            <mxPoint x="197.75" y="371" as="sourcePoint" />
            <mxPoint x="351" y="371.5" as="targetPoint" />
          </mxGeometry>
        </mxCell>
        <mxCell id="piXn53ShzP-eT9wFTnDq-64" value="" style="endArrow=classic;html=1;rounded=0;entryX=-0.037;entryY=-0.037;entryDx=0;entryDy=0;entryPerimeter=0;strokeWidth=2;fillColor=#e3c800;strokeColor=#B09500;" parent="1" target="piXn53ShzP-eT9wFTnDq-40" edge="1">
          <mxGeometry width="50" height="50" relative="1" as="geometry">
            <mxPoint x="197.75" y="371" as="sourcePoint" />
            <mxPoint x="293.75" y="474" as="targetPoint" />
          </mxGeometry>
        </mxCell>
        <mxCell id="piXn53ShzP-eT9wFTnDq-65" value="" style="endArrow=classic;html=1;rounded=0;entryX=0.017;entryY=0.655;entryDx=0;entryDy=0;entryPerimeter=0;strokeWidth=2;fillColor=#e3c800;strokeColor=#B09500;" parent="1" target="piXn53ShzP-eT9wFTnDq-44" edge="1">
          <mxGeometry width="50" height="50" relative="1" as="geometry">
            <mxPoint x="553" y="369.5" as="sourcePoint" />
            <mxPoint x="550.6808309307771" y="285.50000000000006" as="targetPoint" />
          </mxGeometry>
        </mxCell>
        <mxCell id="piXn53ShzP-eT9wFTnDq-66" value="" style="endArrow=classic;html=1;rounded=0;strokeWidth=2;fillColor=#e3c800;strokeColor=#B09500;" parent="1" target="piXn53ShzP-eT9wFTnDq-42" edge="1">
          <mxGeometry width="50" height="50" relative="1" as="geometry">
            <mxPoint x="553" y="371.5" as="sourcePoint" />
            <mxPoint x="543.3561499999996" y="370.63200000000006" as="targetPoint" />
          </mxGeometry>
        </mxCell>
        <mxCell id="piXn53ShzP-eT9wFTnDq-67" value="" style="endArrow=classic;html=1;rounded=0;entryX=0.031;entryY=0.011;entryDx=0;entryDy=0;entryPerimeter=0;strokeWidth=2;fillColor=#e3c800;strokeColor=#B09500;" parent="1" target="piXn53ShzP-eT9wFTnDq-43" edge="1">
          <mxGeometry width="50" height="50" relative="1" as="geometry">
            <mxPoint x="553" y="373.5" as="sourcePoint" />
            <mxPoint x="543.8607499999998" y="462.39700000000005" as="targetPoint" />
          </mxGeometry>
        </mxCell>
        <mxCell id="piXn53ShzP-eT9wFTnDq-70" value="" style="endArrow=classic;html=1;rounded=0;entryX=0.021;entryY=0.487;entryDx=0;entryDy=0;entryPerimeter=0;strokeWidth=2;fillColor=#e3c800;strokeColor=#B09500;" parent="1" target="piXn53ShzP-eT9wFTnDq-58" edge="1">
          <mxGeometry width="50" height="50" relative="1" as="geometry">
            <mxPoint x="405" y="370.5" as="sourcePoint" />
            <mxPoint x="429.74775" y="370.585" as="targetPoint" />
          </mxGeometry>
        </mxCell>
        <mxCell id="piXn53ShzP-eT9wFTnDq-71" value="" style="endArrow=classic;html=1;rounded=0;exitX=0.995;exitY=-0.037;exitDx=0;exitDy=0;exitPerimeter=0;entryX=0.189;entryY=0.849;entryDx=0;entryDy=0;entryPerimeter=0;strokeWidth=2;fillColor=#e3c800;strokeColor=#B09500;" parent="1" source="piXn53ShzP-eT9wFTnDq-40" target="piXn53ShzP-eT9wFTnDq-58" edge="1">
          <mxGeometry width="50" height="50" relative="1" as="geometry">
            <mxPoint x="338.23199999999997" y="493.70900000000006" as="sourcePoint" />
            <mxPoint x="438.9200000000001" y="386" as="targetPoint" />
          </mxGeometry>
        </mxCell>
        <mxCell id="piXn53ShzP-eT9wFTnDq-74" value="" style="endArrow=classic;html=1;rounded=0;entryX=0.189;entryY=0.113;entryDx=0;entryDy=0;entryPerimeter=0;exitX=1.006;exitY=0.798;exitDx=0;exitDy=0;exitPerimeter=0;strokeWidth=2;fillColor=#e3c800;strokeColor=#B09500;" parent="1" source="piXn53ShzP-eT9wFTnDq-41" target="piXn53ShzP-eT9wFTnDq-58" edge="1">
          <mxGeometry width="50" height="50" relative="1" as="geometry">
            <mxPoint x="386.75" y="261.6" as="sourcePoint" />
            <mxPoint x="438.8607499999998" y="353.99700000000007" as="targetPoint" />
          </mxGeometry>
        </mxCell>
        <mxCell id="piXn53ShzP-eT9wFTnDq-85" value="Internal Load Balancer&lt;br&gt;lb-backend-01" style="text;html=1;strokeColor=none;fillColor=none;align=center;verticalAlign=middle;whiteSpace=wrap;rounded=0;" parent="1" vertex="1">
          <mxGeometry x="462.25" y="191" width="126" height="30" as="geometry" />
        </mxCell>
        <mxCell id="piXn53ShzP-eT9wFTnDq-99" value="" style="endArrow=classic;html=1;rounded=0;strokeColor=#B09500;strokeWidth=2;fillColor=#e3c800;entryX=0;entryY=0.475;entryDx=0;entryDy=0;entryPerimeter=0;exitX=1.041;exitY=0.397;exitDx=0;exitDy=0;exitPerimeter=0;" parent="1" source="piXn53ShzP-eT9wFTnDq-42" target="piXn53ShzP-eT9wFTnDq-97" edge="1">
          <mxGeometry width="50" height="50" relative="1" as="geometry">
            <mxPoint x="696" y="388.5" as="sourcePoint" />
            <mxPoint x="900" y="389.5" as="targetPoint" />
          </mxGeometry>
        </mxCell>
        <mxCell id="WbdaYALbMlaz5bzxNm2c-2" value="" style="image;aspect=fixed;html=1;points=[];align=center;fontSize=12;image=img/lib/azure2/networking/Network_Security_Groups.svg;" parent="1" vertex="1">
          <mxGeometry x="844" y="131" width="26.35" height="32" as="geometry" />
        </mxCell>
        <mxCell id="WbdaYALbMlaz5bzxNm2c-3" value="sub-backend" style="text;html=1;strokeColor=none;fillColor=none;align=center;verticalAlign=middle;whiteSpace=wrap;rounded=0;" parent="1" vertex="1">
          <mxGeometry x="616.25" y="174.5" width="110.5" height="23" as="geometry" />
        </mxCell>
        <mxCell id="vQ1yZcKt1P1H_fzuq0_L-48" value="Zona 1" style="text;html=1;strokeColor=none;fillColor=none;align=center;verticalAlign=middle;whiteSpace=wrap;rounded=0;" parent="1" vertex="1">
          <mxGeometry x="1465.25" y="447.5" width="60" height="30" as="geometry" />
        </mxCell>
        <mxCell id="vQ1yZcKt1P1H_fzuq0_L-49" value="Zona 2" style="text;html=1;strokeColor=none;fillColor=none;align=center;verticalAlign=middle;whiteSpace=wrap;rounded=0;" parent="1" vertex="1">
          <mxGeometry x="1463.25" y="494" width="60" height="30" as="geometry" />
        </mxCell>
        <mxCell id="vQ1yZcKt1P1H_fzuq0_L-50" value="Zona 3" style="text;html=1;strokeColor=none;fillColor=none;align=center;verticalAlign=middle;whiteSpace=wrap;rounded=0;" parent="1" vertex="1">
          <mxGeometry x="1463.25" y="546.5" width="60" height="30" as="geometry" />
        </mxCell>
        <mxCell id="vQ1yZcKt1P1H_fzuq0_L-51" value="" style="image;aspect=fixed;html=1;points=[];align=center;fontSize=12;image=img/lib/azure2/compute/Virtual_Machine.svg;" parent="1" vertex="1">
          <mxGeometry x="1369.2299999999998" y="491" width="42.05" height="39" as="geometry" />
        </mxCell>
        <mxCell id="vQ1yZcKt1P1H_fzuq0_L-52" value="" style="image;aspect=fixed;html=1;points=[];align=center;fontSize=12;image=img/lib/azure2/compute/Virtual_Machine.svg;" parent="1" vertex="1">
          <mxGeometry x="1369.2299999999998" y="544" width="42.05" height="39" as="geometry" />
        </mxCell>
        <mxCell id="vQ1yZcKt1P1H_fzuq0_L-53" value="" style="image;aspect=fixed;html=1;points=[];align=center;fontSize=12;image=img/lib/azure2/compute/Virtual_Machine.svg;" parent="1" vertex="1">
          <mxGeometry x="1369.2299999999998" y="439" width="42.05" height="39" as="geometry" />
        </mxCell>
        <mxCell id="piXn53ShzP-eT9wFTnDq-91" value="" style="image;aspect=fixed;html=1;points=[];align=center;fontSize=12;image=img/lib/azure2/compute/Virtual_Machine.svg;" parent="1" vertex="1">
          <mxGeometry x="1369.2299999999998" y="220" width="42.05" height="39" as="geometry" />
        </mxCell>
        <mxCell id="piXn53ShzP-eT9wFTnDq-92" value="" style="image;aspect=fixed;html=1;points=[];align=center;fontSize=12;image=img/lib/azure2/compute/Virtual_Machine.svg;" parent="1" vertex="1">
          <mxGeometry x="1369.2299999999998" y="278" width="42.05" height="39" as="geometry" />
        </mxCell>
        <mxCell id="piXn53ShzP-eT9wFTnDq-93" value="" style="image;aspect=fixed;html=1;points=[];align=center;fontSize=12;image=img/lib/azure2/compute/Virtual_Machine.svg;" parent="1" vertex="1">
          <mxGeometry x="1369.2299999999998" y="158" width="42.05" height="39" as="geometry" />
        </mxCell>
        <mxCell id="piXn53ShzP-eT9wFTnDq-94" value="" style="image;aspect=fixed;html=1;points=[];align=center;fontSize=12;image=img/lib/azure2/networking/Network_Security_Groups.svg;" parent="1" vertex="1">
          <mxGeometry x="1298" y="348" width="23.88" height="29" as="geometry" />
        </mxCell>
        <mxCell id="piXn53ShzP-eT9wFTnDq-115" value="Zona 2" style="text;html=1;strokeColor=none;fillColor=none;align=center;verticalAlign=middle;whiteSpace=wrap;rounded=0;" parent="1" vertex="1">
          <mxGeometry x="1463.25" y="231" width="60" height="17" as="geometry" />
        </mxCell>
        <mxCell id="piXn53ShzP-eT9wFTnDq-107" value="VNET-SPOKE02&lt;br&gt;10.20.0.0/16" style="text;html=1;strokeColor=none;fillColor=none;align=center;verticalAlign=middle;whiteSpace=wrap;rounded=0;" parent="1" vertex="1">
          <mxGeometry x="1200.25" y="18" width="94.5" height="31.77033492822966" as="geometry" />
        </mxCell>
        <mxCell id="piXn53ShzP-eT9wFTnDq-106" value="" style="image;aspect=fixed;html=1;points=[];align=center;fontSize=12;image=img/lib/azure2/networking/Virtual_Networks.svg;" parent="1" vertex="1">
          <mxGeometry x="1214" y="53.360446570972876" width="65.42352941176472" height="39.05882352941177" as="geometry" />
        </mxCell>
        <mxCell id="vQ1yZcKt1P1H_fzuq0_L-47" value="sub-integration" style="text;html=1;strokeColor=none;fillColor=none;align=center;verticalAlign=middle;whiteSpace=wrap;rounded=0;" parent="1" vertex="1">
          <mxGeometry x="1338.75" y="367.0020414673046" width="104" height="31.770334928229662" as="geometry" />
        </mxCell>
        <mxCell id="piXn53ShzP-eT9wFTnDq-114" value="Zona 1" style="text;html=1;strokeColor=none;fillColor=none;align=center;verticalAlign=middle;whiteSpace=wrap;rounded=0;" parent="1" vertex="1">
          <mxGeometry x="1463" y="170.91068580542262" width="60" height="19.062200956937797" as="geometry" />
        </mxCell>
        <mxCell id="piXn53ShzP-eT9wFTnDq-116" value="Zona 3" style="text;html=1;strokeColor=none;fillColor=none;align=center;verticalAlign=middle;whiteSpace=wrap;rounded=0;" parent="1" vertex="1">
          <mxGeometry x="1463" y="294.81499202551834" width="60" height="20.65071770334928" as="geometry" />
        </mxCell>
        <mxCell id="piXn53ShzP-eT9wFTnDq-113" value="sub-database" style="text;html=1;strokeColor=none;fillColor=none;align=center;verticalAlign=middle;whiteSpace=wrap;rounded=0;" parent="1" vertex="1">
          <mxGeometry x="1338.38" y="89.00298245614034" width="101.25" height="31.770334928229662" as="geometry" />
        </mxCell>
        <mxCell id="5LvUjJr5f0t_mkYkE7_c-14" value="Backend-Pool&lt;br&gt;Database" style="text;html=1;strokeColor=none;fillColor=none;align=center;verticalAlign=middle;whiteSpace=wrap;rounded=0;" parent="1" vertex="1">
          <mxGeometry x="1234" y="110.23" width="81" height="31.77" as="geometry" />
        </mxCell>
        <mxCell id="5LvUjJr5f0t_mkYkE7_c-15" value="Backend-Pool&lt;br&gt;Integration" style="text;html=1;strokeColor=none;fillColor=none;align=center;verticalAlign=middle;whiteSpace=wrap;rounded=0;" parent="1" vertex="1">
          <mxGeometry x="1234" y="390.23" width="81" height="31.77" as="geometry" />
        </mxCell>
        <mxCell id="cvwk5FWjo_cIpafisq4H-6" value="" style="image;aspect=fixed;html=1;points=[];align=center;fontSize=12;image=img/lib/azure2/general/Resource_Groups.svg;" parent="1" vertex="1">
          <mxGeometry x="6" y="-26" width="68" height="64" as="geometry" />
        </mxCell>
        <mxCell id="cvwk5FWjo_cIpafisq4H-7" value="RG-CLOUDSHOES" style="text;html=1;strokeColor=none;fillColor=none;align=center;verticalAlign=middle;whiteSpace=wrap;rounded=0;fontSize=14;" parent="1" vertex="1">
          <mxGeometry x="86" y="-12" width="137" height="30" as="geometry" />
        </mxCell>
        <mxCell id="iGysODXyn0N9equV0JND-1" value="" style="group" parent="1" vertex="1" connectable="0">
          <mxGeometry x="701" y="966" width="173" height="130" as="geometry" />
        </mxCell>
        <mxCell id="vQ1yZcKt1P1H_fzuq0_L-83" value="" style="rounded=0;whiteSpace=wrap;html=1;fillColor=#f5f5f5;fontColor=#333333;strokeColor=#000000;fillStyle=auto;opacity=50;dashed=1;dashPattern=1 1;strokeWidth=2;" parent="iGysODXyn0N9equV0JND-1" vertex="1">
          <mxGeometry width="173" height="130" as="geometry" />
        </mxCell>
        <mxCell id="vQ1yZcKt1P1H_fzuq0_L-84" value="" style="image;sketch=0;aspect=fixed;html=1;points=[];align=center;fontSize=12;image=img/lib/mscae/VPN_Gateway.svg;" parent="iGysODXyn0N9equV0JND-1" vertex="1">
          <mxGeometry x="64" y="45" width="45" height="50" as="geometry" />
        </mxCell>
        <mxCell id="kLqBszuAOoGfDPWovw_3-2" value="VNG01" style="text;html=1;strokeColor=none;fillColor=none;align=center;verticalAlign=middle;whiteSpace=wrap;rounded=0;" parent="iGysODXyn0N9equV0JND-1" vertex="1">
          <mxGeometry x="59" y="96.5" width="55" height="19" as="geometry" />
        </mxCell>
        <mxCell id="kLqBszuAOoGfDPWovw_3-3" value="GatewaySubnet&lt;br&gt;10.0.240.0/24" style="text;html=1;strokeColor=none;fillColor=none;align=center;verticalAlign=middle;whiteSpace=wrap;rounded=0;" parent="iGysODXyn0N9equV0JND-1" vertex="1">
          <mxGeometry x="6.75" y="9" width="89.5" height="19" as="geometry" />
        </mxCell>
        <mxCell id="iGysODXyn0N9equV0JND-2" value="" style="group" parent="1" vertex="1" connectable="0">
          <mxGeometry x="914" y="953" width="186.10000000000002" height="143" as="geometry" />
        </mxCell>
        <mxCell id="uYVgUVYLHmNSPc3tJzxF-1" value="" style="rounded=0;whiteSpace=wrap;html=1;fillColor=#f5f5f5;fontColor=#333333;strokeColor=#000000;fillStyle=auto;opacity=50;dashed=1;dashPattern=1 1;strokeWidth=2;" parent="iGysODXyn0N9equV0JND-2" vertex="1">
          <mxGeometry y="13" width="173" height="130" as="geometry" />
        </mxCell>
        <mxCell id="uYVgUVYLHmNSPc3tJzxF-2" value="SUB-HUB&lt;br&gt;10.0.1.0/24" style="text;html=1;strokeColor=none;fillColor=none;align=center;verticalAlign=middle;whiteSpace=wrap;rounded=0;" parent="iGysODXyn0N9equV0JND-2" vertex="1">
          <mxGeometry x="9.5" y="22" width="89.5" height="19" as="geometry" />
        </mxCell>
        <mxCell id="WbdaYALbMlaz5bzxNm2c-7" value="" style="image;aspect=fixed;html=1;points=[];align=center;fontSize=12;image=img/lib/azure2/networking/Network_Security_Groups.svg;" parent="iGysODXyn0N9equV0JND-2" vertex="1">
          <mxGeometry x="159.75" width="26.35" height="32" as="geometry" />
        </mxCell>
        <mxCell id="iGysODXyn0N9equV0JND-4" value="" style="rounded=0;whiteSpace=wrap;html=1;fillColor=#f5f5f5;fontColor=#333333;strokeColor=#000000;fillStyle=auto;opacity=50;dashed=1;dashPattern=1 1;strokeWidth=2;" parent="1" vertex="1">
          <mxGeometry x="812" y="787" width="173" height="130" as="geometry" />
        </mxCell>
        <mxCell id="iGysODXyn0N9equV0JND-5" value="AzureFirewallSubnet&lt;br&gt;10.0.250.0/24" style="text;html=1;strokeColor=none;fillColor=none;align=center;verticalAlign=middle;whiteSpace=wrap;rounded=0;" parent="1" vertex="1">
          <mxGeometry x="829.75" y="797" width="89.5" height="19" as="geometry" />
        </mxCell>
        <mxCell id="iGysODXyn0N9equV0JND-7" value="" style="image;sketch=0;aspect=fixed;html=1;points=[];align=center;fontSize=12;image=img/lib/mscae/Azure_Firewall.svg;" parent="1" vertex="1">
          <mxGeometry x="878" y="839" width="50" height="50" as="geometry" />
        </mxCell>
        <mxCell id="kLqBszuAOoGfDPWovw_3-37" value="Gateway" style="text;html=1;strokeColor=none;fillColor=none;align=center;verticalAlign=middle;whiteSpace=wrap;rounded=0;" parent="1" vertex="1">
          <mxGeometry x="-212.19" y="1022" width="55" height="18" as="geometry" />
        </mxCell>
        <mxCell id="iGysODXyn0N9equV0JND-9" value="" style="group" parent="1" vertex="1" connectable="0">
          <mxGeometry x="152" y="756" width="347.75" height="310.4000000000001" as="geometry" />
        </mxCell>
        <mxCell id="JaG3CU5fATAje8maMEjF-1" value="" style="rounded=1;whiteSpace=wrap;html=1;fillColor=#dae8fc;strokeColor=none;" parent="iGysODXyn0N9equV0JND-9" vertex="1">
          <mxGeometry width="347.75" height="310.4" as="geometry" />
        </mxCell>
        <mxCell id="JaG3CU5fATAje8maMEjF-3" value="" style="image;aspect=fixed;html=1;points=[];align=center;fontSize=12;image=img/lib/azure2/storage/Recovery_Services_Vaults.svg;" parent="iGysODXyn0N9equV0JND-9" vertex="1">
          <mxGeometry x="152.5617474048443" y="73.7856836461126" width="57.41983914209115" height="49.93029490616622" as="geometry" />
        </mxCell>
        <mxCell id="JaG3CU5fATAje8maMEjF-4" value="" style="image;aspect=fixed;html=1;points=[];align=center;fontSize=12;image=img/lib/azure2/storage/Storage_Accounts.svg;" parent="iGysODXyn0N9equV0JND-9" vertex="1">
          <mxGeometry x="56.02887543252598" y="77.11436997319026" width="54.091152815013395" height="43.272922252010716" as="geometry" />
        </mxCell>
        <mxCell id="JaG3CU5fATAje8maMEjF-5" value="" style="image;aspect=fixed;html=1;points=[];align=center;fontSize=12;image=img/lib/azure2/management_governance/Monitor.svg;" parent="iGysODXyn0N9equV0JND-9" vertex="1">
          <mxGeometry x="56.02887543252598" y="195.2827345844504" width="53.258981233243965" height="53.258981233243965" as="geometry" />
        </mxCell>
        <mxCell id="JaG3CU5fATAje8maMEjF-6" value="" style="image;aspect=fixed;html=1;points=[];align=center;fontSize=12;image=img/lib/azure2/devops/Application_Insights.svg;" parent="iGysODXyn0N9equV0JND-9" vertex="1">
          <mxGeometry x="162.96399653979245" y="196.11490616621984" width="36.61554959785522" height="52.42680965147453" as="geometry" />
        </mxCell>
        <mxCell id="JaG3CU5fATAje8maMEjF-7" value="" style="image;aspect=fixed;html=1;points=[];align=center;fontSize=12;image=img/lib/azure2/security/Key_Vaults.svg;" parent="iGysODXyn0N9equV0JND-9" vertex="1">
          <mxGeometry x="258.24859861591693" y="69.00069705093824" width="56.58766756032171" height="56.58766756032171" as="geometry" />
        </mxCell>
        <mxCell id="JaG3CU5fATAje8maMEjF-8" value="" style="image;aspect=fixed;html=1;points=[];align=center;fontSize=12;image=img/lib/azure2/networking/DNS_Zones.svg;" parent="iGysODXyn0N9equV0JND-9" vertex="1">
          <mxGeometry x="264.4899480968858" y="195.2827345844504" width="53.258981233243965" height="53.258981233243965" as="geometry" />
        </mxCell>
        <mxCell id="JaG3CU5fATAje8maMEjF-2" value="Azure Services" style="text;html=1;strokeColor=none;fillColor=none;align=center;verticalAlign=middle;whiteSpace=wrap;rounded=0;fontSize=16;" parent="iGysODXyn0N9equV0JND-9" vertex="1">
          <mxGeometry x="105.63" y="9" width="158.86" height="24.97" as="geometry" />
        </mxCell>
        <mxCell id="iGysODXyn0N9equV0JND-11" value="VPN S2S" style="text;html=1;strokeColor=none;fillColor=none;align=center;verticalAlign=middle;whiteSpace=wrap;rounded=0;fontSize=14;" parent="1" vertex="1">
          <mxGeometry x="173" y="1224" width="79" height="30" as="geometry" />
        </mxCell>
        <mxCell id="yNwMfxCzLT45CR9Ghk91-1" value="Peering" style="text;html=1;strokeColor=none;fillColor=none;align=center;verticalAlign=middle;whiteSpace=wrap;rounded=0;fontSize=14;" vertex="1" parent="1">
          <mxGeometry x="1362.75" y="1134" width="55" height="30" as="geometry" />
        </mxCell>
      </root>
    </mxGraphModel>
  </diagram>
</mxfile>
